<?xml version="1.0" encoding="UTF-8"?>
<svg width="1990px" height="879px" viewBox="0 0 1990 879" version="1.1" xmlns="http://www.w3.org/2000/svg" xmlns:xlink="http://www.w3.org/1999/xlink">
    <!-- Generator: Sketch 46.2 (44496) - http://www.bohemiancoding.com/sketch -->
    <title>DG3 Logo color-01</title>
    <desc>Created with Sketch.</desc>
    <defs></defs>
    <g id="Page-1" stroke="none" stroke-width="1" fill="none" fill-rule="evenodd">
        <g id="DG3-Logo-color-01">
            <path d="M1501.08,152.542 C1501.08,127.1 1480.46,106.602 1455.14,106.602 C1429.83,106.602 1409.33,127.1 1409.33,152.542 C1409.33,177.854 1429.83,198.352 1455.14,198.352 C1480.46,198.352 1501.08,177.854 1501.08,152.542 L1501.08,152.542 Z M1495.52,152.542 C1495.52,174.738 1477.46,192.792 1455.14,192.792 C1432.95,192.792 1414.89,174.738 1414.89,152.542 C1414.89,130.346 1432.95,112.172 1455.14,112.172 C1477.46,112.172 1495.52,130.346 1495.52,152.542 L1495.52,152.542 Z M1473.96,179.022 L1455.53,153.58 C1464.75,153.061 1471.62,148.01 1471.62,138.782 C1471.62,128.518 1463.19,123.477 1453.59,123.477 C1448.77,123.477 1444.24,124.385 1440.88,126.062 L1440.88,179.022 L1446.96,179.022 L1446.96,153.959 L1448.9,153.959 L1466.7,179.022 L1473.96,179.022 Z M1465.41,138.652 C1465.41,146.971 1458.91,149.697 1451.76,149.697 L1446.96,149.697 L1446.96,129.566 C1448.51,128.918 1450.72,128.518 1452.8,128.518 C1458.52,128.518 1465.41,130.734 1465.41,138.652 L1465.41,138.652 Z" id="Fill-1" fill="#249C68"></path>
            <g id="Group-5">
                <path d="M167.805,71.054 C167.805,71.054 179.627,54.385 243.502,54.839 C294.743,55.207 329.108,83.98 329.108,83.98 C329.108,83.98 414.628,151.079 434.358,254.468 C463.975,409.638 379.927,493.611 379.927,493.611 C379.927,493.611 341.699,472.68 303.656,442.501 C279.036,422.943 256.202,399.6 256.202,399.6 C256.202,399.6 311.076,330.133 289.745,242.212 C268.046,152.733 200.072,96.074 167.805,71.054" id="Fill-2" fill="#ADCFB4"></path>
                <path d="M297.922,46.973 C297.922,46.973 153.438,-6.462 111.425,103.406 C88.374,163.689 120.49,298.73 232.944,408.316 C373.825,545.585 566.769,609.978 641.915,626.291 L640.357,636.382 C640.357,636.382 444.233,602.201 312.546,551.653 C159.994,493.089 33.64,384.681 8.425,260.675 C-27.898,81.988 62.294,26.4 106.655,10.401 C205.415,-25.209 297.922,46.973 297.922,46.973" id="Fill-4" fill="#249C68"></path>
            </g>
            <path d="M1393.9,268.242 C1393.9,216.115 1350.46,182.441 1283.22,182.441 C1233.25,182.441 1201.66,196.179 1190.39,202.085 L1187.22,203.74 L1205.96,249.431 L1209.78,247.473 C1222.18,241.091 1245.46,234.255 1273.56,234.255 C1292.22,234.255 1323.52,239.599 1323.52,275.305 C1323.52,307.659 1293.88,329.618 1244.22,334.053 L1240.64,334.377 L1240.64,375.353 L1244.68,375.244 C1268.04,374.639 1299.81,377.732 1318.44,395.883 C1328.55,405.748 1333.68,419.237 1333.68,435.993 C1333.68,472.457 1309.1,494.232 1267.96,494.232 C1232.15,494.232 1209.68,484.302 1201.69,480.04 L1197.83,477.974 L1178.11,526.693 L1181.16,528.38 C1205.39,541.816 1236.52,548.068 1279.14,548.068 C1355.1,548.068 1408.13,501.977 1408.13,435.993 C1408.13,391.534 1383.54,360.23 1338.29,343.961 C1366.39,331.154 1393.9,305.69 1393.9,268.242" id="Fill-6" fill="#249C68"></path>
            <path d="M1038.6,487.22 C1027.39,493.83 1011.52,498.449 993.027,498.449 C933.598,498.449 908.513,454.196 908.513,367.681 C908.513,278.527 934.258,227.016 997.01,227.016 C1014.16,227.016 1028.03,228.996 1038.6,234.934 L1038.6,487.22 Z M1116.54,547.309 L1116.54,205.231 C1094.07,190.682 1053.14,179.464 1000.97,179.464 C886.046,179.464 828.608,256.071 828.608,371.651 C828.608,479.292 886.717,545.34 971.901,545.34 C1002.29,545.34 1024.73,540.05 1038.6,532.132 L1038.6,554.567 C1038.6,602.119 991.318,632.32 929.78,636.419 C896.831,638.616 844.238,633.596 812.296,630.276 L802.16,661.298 C839.23,670.234 906.004,684.177 956.866,684.177 C1045.36,684.177 1107.25,638.994 1116.54,547.309 L1116.54,547.309 Z M701.811,489.189 C692.562,495.139 679.354,497.128 660.197,497.128 C598.129,497.128 572.363,444.288 572.363,363.711 C572.363,288.436 596.15,228.347 666.147,228.347 C678.694,228.347 690.583,229.656 701.811,232.966 L701.811,489.189 Z M782.365,522.874 L782.365,23.602 L701.811,23.602 L701.811,189.373 C685.964,184.765 668.116,182.764 648.31,182.764 C555.856,182.764 492.458,252.112 492.458,368.341 C492.458,481.271 553.217,548.639 658.229,548.639 C713.688,548.639 753.97,538.731 782.365,522.874 L782.365,522.874 Z" id="Fill-7" fill="#64696E"></path>
            <path d="M1220.26,708.319 L1220.26,615.985 L1213.8,615.985 L1213.8,647.051 C1209.91,645.948 1206.62,645.461 1203.2,645.461 C1186.15,645.461 1174.82,658.009 1174.82,680.184 C1174.82,698.822 1183.72,712.83 1201.99,712.83 C1210.03,712.83 1216.72,710.752 1220.26,708.319 L1220.26,708.319 Z M1213.8,706.004 C1211.37,707.713 1207.83,708.2 1202.59,708.2 C1187.25,708.2 1181.4,695.404 1181.4,679.33 C1181.4,664.585 1186.64,649.485 1204.17,649.485 C1207.47,649.485 1210.76,649.972 1213.8,650.827 L1213.8,706.004 Z M1239.87,711.608 L1246.45,711.608 L1246.45,645.948 L1239.87,645.948 L1239.87,711.608 Z M1247.54,627.559 C1247.54,625.115 1245.59,623.168 1243.16,623.168 C1240.73,623.168 1238.78,625.115 1238.78,627.559 C1238.78,629.993 1240.73,631.94 1243.16,631.94 C1245.59,631.94 1247.54,629.993 1247.54,627.559 L1247.54,627.559 Z M1310.03,645.948 L1304.07,645.948 L1287.87,697.718 C1286.64,701.743 1286.16,704.663 1286.16,704.663 L1285.92,704.663 C1285.92,704.663 1285.55,701.624 1284.33,697.718 L1268.25,645.948 L1261.06,645.948 L1283.24,711.608 L1288.59,711.608 L1310.03,645.948 Z M1367.9,675.424 C1367.9,653.628 1358.51,644.737 1344.38,644.737 C1330.63,644.737 1319.54,655.457 1319.54,678.594 C1319.54,703.203 1331.84,712.83 1347.67,712.83 C1355.47,712.83 1362.05,710.752 1365.59,708.568 L1363.51,703.808 C1360.22,705.766 1355.1,707.713 1347.79,707.713 C1334.77,707.713 1326.72,699.06 1325.75,681.644 L1367.9,675.424 Z M1361.44,672.136 L1325.63,677.621 C1325.63,657.641 1333.78,649.604 1344.27,649.604 C1354.87,649.604 1361.44,655.694 1361.44,672.136 L1361.44,672.136 Z M1408.7,644.737 C1394.33,644.737 1389.95,646.316 1383.98,649.355 L1383.98,711.608 L1390.55,711.608 L1390.55,652.287 C1394.21,649.604 1401.03,648.869 1406.76,650.459 L1408.7,644.737 Z M1452.92,694.062 C1452.92,686.393 1449.75,679.33 1436.84,674.7 C1429.89,672.136 1424.66,668.848 1424.66,661.546 C1424.66,654.969 1429.05,649.355 1437.33,649.355 C1442.81,649.355 1446.83,651.8 1448.78,653.26 L1450.73,648.999 C1448.17,646.921 1442.93,644.607 1436.97,644.607 C1425.76,644.607 1418.57,652.525 1418.57,661.546 C1418.57,668.242 1421,675.187 1434.17,679.935 C1442.08,682.856 1446.35,686.144 1446.35,694.062 C1446.35,701.624 1440.61,707.464 1432.09,707.464 C1425.76,707.464 1421,705.518 1418.69,703.571 L1416.74,708.2 C1420.16,710.752 1425.76,712.582 1432.46,712.582 C1444.64,712.582 1452.92,703.203 1452.92,694.062 L1452.92,694.062 Z M1469.61,711.608 L1476.19,711.608 L1476.19,645.948 L1469.61,645.948 L1469.61,711.608 Z M1477.28,627.559 C1477.28,625.115 1475.34,623.168 1472.9,623.168 C1470.46,623.168 1468.51,625.115 1468.51,627.559 C1468.51,629.993 1470.46,631.94 1472.9,631.94 C1475.34,631.94 1477.28,629.993 1477.28,627.559 L1477.28,627.559 Z M1518.1,649.723 L1518.1,645.948 L1505.91,645.948 L1505.91,634.374 C1505.91,624.141 1511.64,620.734 1518.1,620.127 L1518.1,615.985 C1505.42,615.985 1499.33,624.271 1499.33,635.477 L1499.33,645.948 L1491.66,645.948 L1491.66,649.853 L1499.33,649.853 L1499.33,711.608 L1505.91,711.608 L1505.91,649.723 L1518.1,649.723 Z M1528.93,711.608 L1535.51,711.608 L1535.51,645.948 L1528.93,645.948 L1528.93,711.608 Z M1536.37,627.559 C1536.37,625.245 1534.54,623.417 1532.22,623.417 C1529.91,623.417 1528.08,625.245 1528.08,627.559 C1528.08,629.874 1529.91,631.703 1532.22,631.703 C1534.54,631.703 1536.37,629.874 1536.37,627.559 L1536.37,627.559 Z M1600.8,675.424 C1600.8,653.628 1591.42,644.737 1577.3,644.737 C1563.53,644.737 1552.44,655.457 1552.44,678.594 C1552.44,703.203 1564.75,712.83 1580.59,712.83 C1588.37,712.83 1594.95,710.752 1598.49,708.568 L1596.42,703.808 C1593.13,705.766 1588.02,707.713 1580.71,707.713 C1567.67,707.713 1559.63,699.06 1558.66,681.644 L1600.8,675.424 Z M1594.34,672.136 L1558.53,677.621 C1558.53,657.641 1566.7,649.604 1577.17,649.604 C1587.77,649.604 1594.34,655.694 1594.34,672.136 L1594.34,672.136 Z M1659.64,708.319 L1659.64,615.985 L1653.18,615.985 L1653.18,647.051 C1649.29,645.948 1646,645.461 1642.59,645.461 C1625.53,645.461 1614.21,658.009 1614.21,680.184 C1614.21,698.822 1623.1,712.83 1641.37,712.83 C1649.4,712.83 1656.11,710.752 1659.64,708.319 L1659.64,708.319 Z M1653.18,706.004 C1650.75,707.713 1647.22,708.2 1641.97,708.2 C1626.62,708.2 1620.78,695.404 1620.78,679.33 C1620.78,664.585 1626.02,649.485 1643.56,649.485 C1646.85,649.485 1650.14,649.972 1653.18,650.827 L1653.18,706.004 Z M1755.26,713.436 L1755.26,649.118 C1751.97,646.921 1746.25,644.737 1737.72,644.737 C1719.33,644.737 1709.83,659.35 1709.83,679.816 C1709.83,699.915 1719.33,712.582 1735.04,712.582 C1740.88,712.582 1745.88,711.24 1748.93,709.293 L1748.93,714.41 C1748.93,725.497 1743.82,734.02 1730.9,734.02 C1725.05,734.02 1719.44,732.074 1716.16,730.127 L1713.6,734.756 C1717.62,737.309 1723.84,739.018 1731.87,739.018 C1746.98,739.018 1755.26,728.904 1755.26,713.436 L1755.26,713.436 Z M1748.93,705.15 C1746,706.978 1741.62,708.319 1736.75,708.319 C1722.61,708.319 1716.4,697.599 1716.4,679.816 C1716.4,661.546 1722.86,648.869 1737.84,648.869 C1742.22,648.869 1746.13,649.485 1748.93,651.064 L1748.93,705.15 Z M1775,711.608 L1781.58,711.608 L1781.58,615.985 L1775,615.985 L1775,711.608 Z M1846.62,678.843 C1846.62,659.35 1839.92,644.737 1822.5,644.737 C1805.45,644.737 1798.63,659.35 1798.63,678.843 C1798.63,697.967 1805.45,712.83 1822.75,712.83 C1839.81,712.83 1846.62,697.967 1846.62,678.843 L1846.62,678.843 Z M1840.04,678.961 C1840.04,692.851 1837.36,708.082 1822.75,708.082 C1808.37,708.082 1805.2,692.97 1805.2,678.961 C1805.2,665.073 1808,648.999 1822.75,648.999 C1837.36,648.999 1840.04,665.073 1840.04,678.961 L1840.04,678.961 Z M1908.14,677.988 C1908.14,657.89 1898.03,645.223 1883.17,645.223 C1876.23,645.223 1872.45,646.683 1869.16,648.511 L1869.16,615.985 L1862.71,615.985 L1862.71,708.319 C1866.23,710.752 1872.57,712.83 1880.24,712.83 C1898.64,712.83 1908.14,698.206 1908.14,677.988 L1908.14,677.988 Z M1901.56,677.988 C1901.56,695.404 1895.59,708.2 1880,708.2 C1876.1,708.2 1872.08,707.713 1869.16,706.253 L1869.16,652.169 C1872.69,650.21 1875.98,649.237 1881.83,649.237 C1895.35,649.237 1901.56,662.758 1901.56,677.988 L1901.56,677.988 Z M1963.68,708.2 L1963.68,664.705 C1963.68,649.485 1953.21,644.737 1942.24,644.737 C1934.69,644.737 1927.88,647.539 1924.46,649.485 L1926.29,653.748 C1929.7,651.8 1935.18,649.485 1941.52,649.485 C1950.53,649.485 1957.47,652.774 1957.47,664.585 L1957.47,669.097 C1936.89,671.163 1920.8,676.528 1920.8,694.062 C1920.8,705.15 1927.75,712.83 1943.83,712.83 C1951.99,712.83 1958.93,711.002 1963.68,708.2 L1963.68,708.2 Z M1957.47,706.124 C1954.3,707.833 1949.44,708.806 1944.69,708.806 C1933.84,708.806 1927.26,704.544 1927.26,694.062 C1927.26,679.33 1938.23,675.554 1957.47,672.991 L1957.47,706.124 Z M1983.42,711.608 L1990,711.608 L1990,615.985 L1983.42,615.985 L1983.42,711.608 Z" id="Fill-8" fill="#249C68"></path>
            <path d="M1220.26,852.653 L1220.26,788.335 C1216.97,786.139 1211.25,783.955 1202.71,783.955 C1184.33,783.955 1174.82,798.568 1174.82,819.034 C1174.82,839.131 1184.33,851.798 1200.04,851.798 C1205.88,851.798 1210.88,850.458 1213.92,848.51 L1213.92,853.627 C1213.92,864.714 1208.8,873.238 1195.9,873.238 C1190.05,873.238 1184.44,871.291 1181.16,869.344 L1178.6,873.973 C1182.62,876.526 1188.84,878.236 1196.87,878.236 C1211.97,878.236 1220.26,868.122 1220.26,852.653 L1220.26,852.653 Z M1213.92,844.368 C1211,846.196 1206.62,847.537 1201.74,847.537 C1187.61,847.537 1181.4,836.817 1181.4,819.034 C1181.4,800.763 1187.85,788.086 1202.84,788.086 C1207.22,788.086 1211.12,788.703 1213.92,790.282 L1213.92,844.368 Z M1263.74,783.955 C1249.37,783.955 1244.99,785.534 1239.02,788.584 L1239.02,850.825 L1245.59,850.825 L1245.59,791.504 C1249.25,788.822 1256.07,788.086 1261.8,789.676 L1263.74,783.955 Z M1313.57,847.418 L1313.57,803.922 C1313.57,788.703 1303.1,783.955 1292.13,783.955 C1284.58,783.955 1277.75,786.755 1274.34,788.703 L1276.17,792.964 C1279.58,791.017 1285.06,788.703 1291.4,788.703 C1300.41,788.703 1307.36,791.992 1307.36,803.803 L1307.36,808.314 C1286.77,810.38 1270.69,815.746 1270.69,833.28 C1270.69,844.368 1277.63,852.047 1293.72,852.047 C1301.87,852.047 1308.82,850.219 1313.57,847.418 L1313.57,847.418 Z M1307.36,845.34 C1304.19,847.05 1299.32,848.024 1294.56,848.024 C1283.72,848.024 1277.15,843.761 1277.15,833.28 C1277.15,818.547 1288.1,814.772 1307.36,812.209 L1307.36,845.34 Z M1377.77,816.6 C1377.77,797.594 1368.39,783.955 1350.47,783.955 C1342.32,783.955 1336.1,786.02 1332.32,788.454 L1332.32,877.013 L1338.78,877.013 L1338.78,850.1 C1341.46,851.074 1345.61,851.798 1349.26,851.798 C1366.68,851.798 1377.77,838.883 1377.77,816.6 L1377.77,816.6 Z M1371.19,817.325 C1371.19,836.082 1363.27,847.537 1348.16,847.537 C1344.38,847.537 1341.1,846.801 1338.78,845.958 L1338.78,790.401 C1341.7,788.822 1345.12,788.086 1349.99,788.086 C1365.59,788.086 1371.19,799.661 1371.19,817.325 L1371.19,817.325 Z M1437.34,850.825 L1437.34,803.565 C1437.34,795.031 1432.71,784.678 1416.02,784.678 C1411.27,784.678 1406.39,785.901 1400.42,789.19 L1400.42,755.203 L1393.84,755.203 L1393.84,850.825 L1400.42,850.825 L1400.42,793.203 C1405.3,790.282 1409.81,789.071 1415.65,789.071 C1427.46,789.071 1430.75,796.253 1430.75,803.803 L1430.75,850.825 L1437.34,850.825 Z M1456.95,850.825 L1463.52,850.825 L1463.52,785.166 L1456.95,785.166 L1456.95,850.825 Z M1464.62,766.777 C1464.62,764.333 1462.67,762.385 1460.24,762.385 C1457.79,762.385 1455.84,764.333 1455.84,766.777 C1455.84,769.21 1457.79,771.158 1460.24,771.158 C1462.67,771.158 1464.62,769.21 1464.62,766.777 L1464.62,766.777 Z M1518.45,847.905 L1516.51,843.394 C1513.82,845.34 1510.3,846.931 1505.42,846.931 C1493.37,846.931 1487.15,834.621 1487.15,817.574 C1487.15,801.251 1492.15,788.822 1505.79,788.822 C1511.27,788.822 1514.56,790.65 1516.63,792.229 L1518.45,788.086 C1516.75,786.755 1512.73,783.955 1504.81,783.955 C1490.2,783.955 1480.45,796.74 1480.45,818.06 C1480.45,838.764 1490.57,852.047 1504.33,852.047 C1511.27,852.047 1516.02,849.97 1518.45,847.905 L1518.45,847.905 Z M1564.75,833.28 C1564.75,825.61 1561.58,818.547 1548.67,813.918 C1541.72,811.354 1536.48,808.065 1536.48,800.763 C1536.48,794.187 1540.87,788.584 1549.15,788.584 C1554.64,788.584 1558.66,791.017 1560.61,792.478 L1562.55,788.216 C1560,786.139 1554.75,783.825 1548.78,783.825 C1537.58,783.825 1530.39,791.743 1530.39,800.763 C1530.39,807.46 1532.83,814.404 1545.98,819.153 C1553.9,822.073 1558.17,825.362 1558.17,833.28 C1558.17,840.841 1552.44,846.682 1543.92,846.682 C1537.58,846.682 1532.83,844.735 1530.51,842.788 L1528.57,847.418 C1531.97,849.97 1537.58,851.798 1544.28,851.798 C1556.46,851.798 1564.75,842.42 1564.75,833.28 L1564.75,833.28 Z M1657.45,852.653 L1657.45,788.335 C1654.15,786.139 1648.43,783.955 1639.91,783.955 C1621.51,783.955 1612.01,798.568 1612.01,819.034 C1612.01,839.131 1621.51,851.798 1637.22,851.798 C1643.08,851.798 1648.06,850.458 1651.11,848.51 L1651.11,853.627 C1651.11,864.714 1646,873.238 1633.08,873.238 C1627.24,873.238 1621.64,871.291 1618.35,869.344 L1615.78,873.973 C1619.81,876.526 1626.02,878.236 1634.05,878.236 C1649.17,878.236 1657.45,868.122 1657.45,852.653 L1657.45,852.653 Z M1651.11,844.368 C1648.19,846.196 1643.8,847.537 1638.93,847.537 C1624.79,847.537 1618.59,836.817 1618.59,819.034 C1618.59,800.763 1625.04,788.086 1640.03,788.086 C1644.42,788.086 1648.31,788.703 1651.11,790.282 L1651.11,844.368 Z M1700.94,783.955 C1686.56,783.955 1682.18,785.534 1676.21,788.584 L1676.21,850.825 L1682.79,850.825 L1682.79,791.504 C1686.44,788.822 1693.26,788.086 1698.99,789.676 L1700.94,783.955 Z M1757.22,818.06 C1757.22,798.568 1750.51,783.955 1733.09,783.955 C1716.04,783.955 1709.22,798.568 1709.22,818.06 C1709.22,837.185 1716.04,852.047 1733.33,852.047 C1750.39,852.047 1757.22,837.185 1757.22,818.06 L1757.22,818.06 Z M1750.63,818.179 C1750.63,832.068 1747.96,847.298 1733.33,847.298 C1718.96,847.298 1715.8,832.187 1715.8,818.179 C1715.8,804.291 1718.6,788.216 1733.33,788.216 C1747.96,788.216 1750.63,804.291 1750.63,818.179 L1750.63,818.179 Z M1815.45,846.801 L1815.45,785.166 L1808.86,785.166 L1808.86,844.129 C1805.33,846.196 1801.07,847.298 1795.22,847.298 C1784.75,847.298 1779.87,840.592 1779.87,831.333 L1779.87,785.166 L1773.29,785.166 L1773.29,831.582 C1773.29,843.394 1779.01,852.167 1794.49,852.167 C1804.24,852.167 1811.17,849.484 1815.45,846.801 L1815.45,846.801 Z M1879.63,816.6 C1879.63,797.594 1870.25,783.955 1852.35,783.955 C1844.19,783.955 1837.98,786.02 1834.2,788.454 L1834.2,877.013 L1840.66,877.013 L1840.66,850.1 C1843.33,851.074 1847.47,851.798 1851.13,851.798 C1868.55,851.798 1879.63,838.883 1879.63,816.6 L1879.63,816.6 Z M1873.06,817.325 C1873.06,836.082 1865.14,847.537 1850.04,847.537 C1846.26,847.537 1842.97,846.801 1840.66,845.958 L1840.66,790.401 C1843.58,788.822 1846.99,788.086 1851.87,788.086 C1867.45,788.086 1873.06,799.661 1873.06,817.325 L1873.06,817.325 Z" id="Fill-9" fill="#249C68"></path>
        </g>
    </g>
</svg>